M48
; DRILL file {KiCad 8.0.7} date 2025-02-21T09:01:56-0300
; FORMAT={-:-/ absolute / metric / decimal}
; #@! TF.CreationDate,2025-02-21T09:01:56-03:00
; #@! TF.GenerationSoftware,Kicad,Pcbnew,8.0.7
; #@! TF.FileFunction,Plated,1,2,PTH
FMAT,2
METRIC
; #@! TA.AperFunction,Plated,PTH,ComponentDrill
T1C1.000
%
G90
G05
T1
X110.888Y-106.0
X113.428Y-106.0
X117.428Y-61.0
X117.428Y-63.54
X117.428Y-66.08
X117.428Y-68.62
X117.428Y-71.16
X117.428Y-73.7
X117.428Y-76.24
X117.428Y-78.78
X117.428Y-81.32
X117.428Y-83.86
X117.428Y-86.4
X117.428Y-88.94
X117.428Y-91.48
X117.428Y-94.02
X117.428Y-96.56
X132.668Y-61.0
X132.668Y-63.54
X132.668Y-66.08
X132.668Y-68.62
X132.668Y-71.16
X132.668Y-73.7
X132.668Y-76.24
X132.668Y-78.78
X132.668Y-81.32
X132.668Y-83.86
X132.668Y-86.4
X132.668Y-88.94
X132.668Y-91.48
X132.668Y-94.02
X132.668Y-96.56
X134.428Y-104.0
X136.968Y-104.0
X150.888Y-56.0
X150.888Y-64.5
X150.888Y-72.0
X150.888Y-79.5
X150.888Y-87.0
X150.888Y-94.5
X150.888Y-102.0
X153.428Y-56.0
X153.428Y-64.5
X153.428Y-72.0
X153.428Y-79.5
X153.428Y-87.0
X153.428Y-94.5
X153.428Y-102.0
X158.428Y-56.0
X158.428Y-64.5
X158.428Y-72.0
X158.428Y-79.5
X158.428Y-87.0
X158.428Y-94.5
X158.428Y-102.0
X163.508Y-56.0
X163.508Y-64.5
X163.508Y-72.0
X163.508Y-79.5
X163.508Y-87.0
X163.508Y-94.5
X163.508Y-102.0
M30
