%TF.GenerationSoftware,KiCad,Pcbnew,8.0.7*%
%TF.CreationDate,2025-02-21T11:06:21-03:00*%
%TF.ProjectId,_autosave-Quantum_arduino,5f617574-6f73-4617-9665-2d5175616e74,rev?*%
%TF.SameCoordinates,Original*%
%TF.FileFunction,Profile,NP*%
%FSLAX46Y46*%
G04 Gerber Fmt 4.6, Leading zero omitted, Abs format (unit mm)*
G04 Created by KiCad (PCBNEW 8.0.7) date 2025-02-21 11:06:21*
%MOMM*%
%LPD*%
G01*
G04 APERTURE LIST*
%TA.AperFunction,Profile*%
%ADD10C,0.200000*%
%TD*%
%TA.AperFunction,ComponentPad*%
%ADD11R,2.000000X2.000000*%
%TD*%
%TA.AperFunction,ComponentPad*%
%ADD12C,2.000000*%
%TD*%
%TA.AperFunction,ComponentPad*%
%ADD13O,2.000000X2.000000*%
%TD*%
%TA.AperFunction,ComponentPad*%
%ADD14R,1.600000X1.600000*%
%TD*%
%TA.AperFunction,ComponentPad*%
%ADD15O,0.100000X0.100000*%
%TD*%
%TA.AperFunction,Conductor*%
%ADD16C,1.000000*%
%TD*%
%TA.AperFunction,Conductor*%
%ADD17C,0.200000*%
%TD*%
G04 APERTURE END LIST*
D10*
X103927620Y-50000000D02*
G75*
G02*
X100927620Y-50000000I-1500000J0D01*
G01*
X100927620Y-50000000D02*
G75*
G02*
X103927620Y-50000000I1500000J0D01*
G01*
X97427620Y-50000000D02*
X97427620Y-110000000D01*
X102427620Y-115000000D02*
G75*
G02*
X97427600Y-110000000I-20J5000000D01*
G01*
X167427620Y-110000000D02*
G75*
G02*
X162427620Y-115000020I-5000020J0D01*
G01*
X163927620Y-110000000D02*
G75*
G02*
X160927620Y-110000000I-1500000J0D01*
G01*
X160927620Y-110000000D02*
G75*
G02*
X163927620Y-110000000I1500000J0D01*
G01*
X97427620Y-50000000D02*
G75*
G02*
X102427620Y-45000020I4999980J0D01*
G01*
X162427620Y-45000000D02*
G75*
G02*
X167427600Y-50000000I-20J-5000000D01*
G01*
X102427620Y-115000000D02*
X162427620Y-115000000D01*
X167427620Y-110000000D02*
X167427620Y-50000000D01*
X162427620Y-45000000D02*
X102427620Y-45000000D01*
D11*
%TO.P,Qubit0,1,K*%
%TO.N,Net-(Qubit0-K)*%
X153427620Y-56000000D03*
D12*
%TO.P,Qubit0,2,A*%
%TO.N,Net-(A1-D11)*%
X150887620Y-56000000D03*
%TD*%
D11*
%TO.P,Superposition1,1,K*%
%TO.N,Net-(J1-Pin_2)*%
X134427620Y-104000000D03*
D12*
%TO.P,Superposition1,2,A*%
%TO.N,Net-(A1-D4)*%
X136967620Y-104000000D03*
%TD*%
D11*
%TO.P,Qubit1,1,K*%
%TO.N,Net-(Qubit1-K)*%
X153427620Y-64500000D03*
D12*
%TO.P,Qubit1,2,A*%
%TO.N,Net-(A1-D10)*%
X150887620Y-64500000D03*
%TD*%
D11*
%TO.P,Qubit6,1,K*%
%TO.N,Net-(Qubit6-K)*%
X153427620Y-102000000D03*
D12*
%TO.P,Qubit6,2,A*%
%TO.N,Net-(A1-D5)*%
X150887620Y-102000000D03*
%TD*%
D11*
%TO.P,J1,1,Pin_1*%
%TO.N,Net-(A1-D12)*%
X110887620Y-106000000D03*
D13*
%TO.P,J1,2,Pin_2*%
%TO.N,Net-(J1-Pin_2)*%
X113427620Y-106000000D03*
%TD*%
D11*
%TO.P,Qubit4,1,K*%
%TO.N,Net-(Qubit4-K)*%
X153427620Y-87000000D03*
D12*
%TO.P,Qubit4,2,A*%
%TO.N,Net-(A1-D7)*%
X150887620Y-87000000D03*
%TD*%
D11*
%TO.P,Qubit5,1,K*%
%TO.N,Net-(Qubit5-K)*%
X153427620Y-94500000D03*
D12*
%TO.P,Qubit5,2,A*%
%TO.N,Net-(A1-D6)*%
X150887620Y-94500000D03*
%TD*%
D11*
%TO.P,Qubit3,1,K*%
%TO.N,Net-(Qubit3-K)*%
X153427620Y-79500000D03*
D12*
%TO.P,Qubit3,2,A*%
%TO.N,Net-(A1-D8)*%
X150887620Y-79500000D03*
%TD*%
D11*
%TO.P,Qubit2,1,K*%
%TO.N,Net-(Qubit2-K)*%
X153427620Y-72000000D03*
D12*
%TO.P,Qubit2,2,A*%
%TO.N,Net-(A1-D9)*%
X150887620Y-72000000D03*
%TD*%
%TO.P,R16,1*%
%TO.N,Net-(Qubit6-K)*%
X158427620Y-102000000D03*
D13*
%TO.P,R16,2*%
%TO.N,Net-(A1-GND-Pad29)*%
X163507620Y-102000000D03*
%TD*%
D12*
%TO.P,R12,1*%
%TO.N,Net-(Qubit2-K)*%
X158427620Y-72000000D03*
D13*
%TO.P,R12,2*%
%TO.N,Net-(A1-GND-Pad29)*%
X163507620Y-72000000D03*
%TD*%
D12*
%TO.P,R11,1*%
%TO.N,Net-(Qubit1-K)*%
X158427620Y-64500000D03*
D13*
%TO.P,R11,2*%
%TO.N,Net-(A1-GND-Pad29)*%
X163507620Y-64500000D03*
%TD*%
D12*
%TO.P,R10,1*%
%TO.N,Net-(Qubit0-K)*%
X158427620Y-56000000D03*
D13*
%TO.P,R10,2*%
%TO.N,Net-(A1-GND-Pad29)*%
X163507620Y-56000000D03*
%TD*%
D12*
%TO.P,R14,1*%
%TO.N,Net-(Qubit4-K)*%
X158427620Y-87000000D03*
D13*
%TO.P,R14,2*%
%TO.N,Net-(A1-GND-Pad29)*%
X163507620Y-87000000D03*
%TD*%
D12*
%TO.P,R13,1*%
%TO.N,Net-(Qubit3-K)*%
X158427620Y-79500000D03*
D13*
%TO.P,R13,2*%
%TO.N,Net-(A1-GND-Pad29)*%
X163507620Y-79500000D03*
%TD*%
D14*
%TO.P,A1,1,D1/TX*%
%TO.N,unconnected-(A1-D1{slash}TX-Pad1)*%
X117427620Y-96560000D03*
D13*
%TO.P,A1,2,D0/RX*%
%TO.N,unconnected-(A1-D0{slash}RX-Pad2)*%
X117427620Y-94020000D03*
%TO.P,A1,3,~{RESET}*%
%TO.N,unconnected-(A1-~{RESET}-Pad3)*%
X117427620Y-91480000D03*
%TO.P,A1,4,GND*%
%TO.N,Net-(J1-Pin_2)*%
X117427620Y-88940000D03*
%TO.P,A1,5,D2*%
%TO.N,unconnected-(A1-D2-Pad5)*%
X117427620Y-86400000D03*
%TO.P,A1,6,D3*%
%TO.N,unconnected-(A1-D3-Pad6)*%
X117427620Y-83860000D03*
%TO.P,A1,7,D4*%
%TO.N,Net-(A1-D4)*%
X117427620Y-81320000D03*
%TO.P,A1,8,D5*%
%TO.N,Net-(A1-D5)*%
X117427620Y-78780000D03*
%TO.P,A1,9,D6*%
%TO.N,Net-(A1-D6)*%
X117427620Y-76240000D03*
%TO.P,A1,10,D7*%
%TO.N,Net-(A1-D7)*%
X117427620Y-73700000D03*
%TO.P,A1,11,D8*%
%TO.N,Net-(A1-D8)*%
X117427620Y-71160000D03*
%TO.P,A1,12,D9*%
%TO.N,Net-(A1-D9)*%
X117427620Y-68620000D03*
%TO.P,A1,13,D10*%
%TO.N,Net-(A1-D10)*%
X117427620Y-66080000D03*
%TO.P,A1,14,D11*%
%TO.N,Net-(A1-D11)*%
X117427620Y-63540000D03*
%TO.P,A1,15,D12*%
%TO.N,Net-(A1-D12)*%
X117427620Y-61000000D03*
%TO.P,A1,16,D13*%
%TO.N,unconnected-(A1-D13-Pad16)*%
X132667620Y-61000000D03*
%TO.P,A1,17,3V3*%
%TO.N,unconnected-(A1-3V3-Pad17)*%
X132667620Y-63540000D03*
%TO.P,A1,18,AREF*%
%TO.N,unconnected-(A1-AREF-Pad18)*%
X132667620Y-66080000D03*
%TO.P,A1,19,A0*%
%TO.N,unconnected-(A1-A0-Pad19)*%
X132667620Y-68620000D03*
%TO.P,A1,20,A1*%
%TO.N,unconnected-(A1-A1-Pad20)*%
X132667620Y-71160000D03*
D15*
%TO.P,A1,21,A2*%
%TO.N,unconnected-(A1-A2-Pad21)*%
X132667620Y-73700000D03*
%TO.P,A1,22,A3*%
%TO.N,unconnected-(A1-A3-Pad22)*%
X132667620Y-76240000D03*
%TO.P,A1,23,A4*%
%TO.N,unconnected-(A1-A4-Pad23)*%
X132667620Y-78780000D03*
%TO.P,A1,24,A5*%
%TO.N,unconnected-(A1-A5-Pad24)*%
X132667620Y-81320000D03*
D13*
%TO.P,A1,25,A6*%
%TO.N,unconnected-(A1-A6-Pad25)*%
X132667620Y-83860000D03*
%TO.P,A1,26,A7*%
%TO.N,unconnected-(A1-A7-Pad26)*%
X132667620Y-86400000D03*
%TO.P,A1,27,+5V*%
%TO.N,unconnected-(A1-+5V-Pad27)*%
X132667620Y-88940000D03*
%TO.P,A1,28,~{RESET}*%
%TO.N,unconnected-(A1-~{RESET}-Pad28)*%
X132667620Y-91480000D03*
%TO.P,A1,29,GND*%
%TO.N,Net-(A1-GND-Pad29)*%
X132667620Y-94020000D03*
D15*
%TO.P,A1,30,VIN*%
%TO.N,unconnected-(A1-VIN-Pad30)*%
X132667620Y-96560000D03*
%TD*%
D12*
%TO.P,R15,1*%
%TO.N,Net-(Qubit5-K)*%
X158427620Y-94500000D03*
D13*
%TO.P,R15,2*%
%TO.N,Net-(A1-GND-Pad29)*%
X163507620Y-94500000D03*
%TD*%
D16*
%TO.N,Net-(A1-D8)*%
X121257620Y-74990000D02*
X117427620Y-71160000D01*
X150887620Y-79500000D02*
X146377620Y-74990000D01*
X146377620Y-74990000D02*
X121257620Y-74990000D01*
%TO.N,Net-(A1-D5)*%
X122427620Y-83780000D02*
X117427620Y-78780000D01*
X122427620Y-97000000D02*
X122427620Y-83780000D01*
X125427620Y-100000000D02*
X122427620Y-97000000D01*
X148887620Y-100000000D02*
X125427620Y-100000000D01*
X150887620Y-102000000D02*
X148887620Y-100000000D01*
%TO.N,Net-(A1-D9)*%
X150887620Y-70230000D02*
X139657620Y-59000000D01*
X150887620Y-72000000D02*
X150887620Y-70230000D01*
X127047620Y-59000000D02*
X117427620Y-68620000D01*
X139657620Y-59000000D02*
X127047620Y-59000000D01*
%TO.N,Net-(A1-D10)*%
X150887620Y-64500000D02*
X143387620Y-57000000D01*
X126507620Y-57000000D02*
X117427620Y-66080000D01*
X143387620Y-57000000D02*
X126507620Y-57000000D01*
%TO.N,Net-(A1-D6)*%
X124427620Y-83240000D02*
X117427620Y-76240000D01*
X150887620Y-94500000D02*
X147327620Y-98060000D01*
X147327620Y-98060000D02*
X126487620Y-98060000D01*
X124427620Y-96000000D02*
X124427620Y-83240000D01*
X126487620Y-98060000D02*
X124427620Y-96000000D01*
%TO.N,Net-(A1-D7)*%
X143957620Y-80070000D02*
X123797620Y-80070000D01*
X123797620Y-80070000D02*
X117427620Y-73700000D01*
X150887620Y-87000000D02*
X143957620Y-80070000D01*
%TO.N,Net-(A1-D12)*%
X110887620Y-67540000D02*
X117427620Y-61000000D01*
X110887620Y-106000000D02*
X110887620Y-67540000D01*
%TO.N,Net-(A1-D4)*%
X120427620Y-84320000D02*
X117427620Y-81320000D01*
X136967620Y-104000000D02*
X136967620Y-102727208D01*
X136240412Y-102000000D02*
X123894828Y-102000000D01*
X123894828Y-102000000D02*
X120427620Y-98532792D01*
X120427620Y-98532792D02*
X120427620Y-84320000D01*
X136967620Y-102727208D02*
X136240412Y-102000000D01*
%TO.N,Net-(A1-D11)*%
X149887620Y-55000000D02*
X125967620Y-55000000D01*
X150887620Y-56000000D02*
X149887620Y-55000000D01*
X125967620Y-55000000D02*
X117427620Y-63540000D01*
%TO.N,Net-(A1-GND-Pad29)*%
X163507620Y-56000000D02*
X163507620Y-91000000D01*
X163507620Y-91000000D02*
X163507620Y-102000000D01*
X163507620Y-91000000D02*
X135687620Y-91000000D01*
X135687620Y-91000000D02*
X132667620Y-94020000D01*
%TO.N,Net-(Qubit0-K)*%
X153427620Y-56000000D02*
X156427620Y-56000000D01*
X156427620Y-56000000D02*
X158427620Y-56000000D01*
D17*
%TO.N,Net-(Qubit1-K)*%
X157427620Y-64500000D02*
X158427620Y-64500000D01*
D16*
X153427620Y-64500000D02*
X158427620Y-64500000D01*
D17*
X156427620Y-64500000D02*
X157427620Y-64500000D01*
D16*
X156427620Y-64500000D02*
X153427620Y-64500000D01*
%TO.N,Net-(Qubit2-K)*%
X153427620Y-72000000D02*
X158427620Y-72000000D01*
%TO.N,Net-(Qubit3-K)*%
X153427620Y-79500000D02*
X158427620Y-79500000D01*
%TO.N,Net-(Qubit4-K)*%
X153427620Y-87000000D02*
X158427620Y-87000000D01*
%TO.N,Net-(Qubit5-K)*%
X153427620Y-94500000D02*
X158427620Y-94500000D01*
%TO.N,Net-(Qubit6-K)*%
X153427620Y-102000000D02*
X158427620Y-102000000D01*
%TO.N,Net-(J1-Pin_2)*%
X113427620Y-92940000D02*
X117427620Y-88940000D01*
X132427620Y-106000000D02*
X134427620Y-104000000D01*
X113427620Y-106000000D02*
X113427620Y-92940000D01*
X113427620Y-106000000D02*
X132427620Y-106000000D01*
%TD*%
M02*
